<?xml version="1.0" standalone="no"?>
<!DOCTYPE svg PUBLIC "-//W3C//DTD SVG 20010904//EN"
 "http://www.w3.org/TR/2001/REC-SVG-20010904/DTD/svg10.dtd">
<svg version="1.0" xmlns="http://www.w3.org/2000/svg"
 width="512.000000pt" height="512.000000pt" viewBox="0 0 512.000000 512.000000"
 preserveAspectRatio="xMidYMid meet">
<metadata>
Created by potrace 1.14, written by Peter Selinger 2001-2017
</metadata>
<g transform="translate(0.000000,512.000000) scale(0.100000,-0.100000)"
fill="#000000" stroke="none">
<path d="M1525 4888 c-110 -14 -219 -55 -299 -112 -47 -33 -138 -126 -173
-176 -36 -53 -103 -191 -103 -212 0 -8 -3 -18 -7 -22 -4 -3 -8 -12 -10 -19 -1
-7 -10 -41 -19 -77 -34 -137 -43 -232 -39 -435 2 -110 6 -225 10 -256 l7 -57
-58 -26 c-198 -90 -417 -238 -550 -371 -237 -237 -316 -464 -259 -745 5 -24
33 -95 55 -140 76 -151 230 -309 427 -437 78 -51 312 -173 359 -187 20 -6 21
-11 16 -69 -8 -90 -8 -361 1 -437 33 -282 129 -498 285 -640 206 -189 519
-220 871 -85 76 29 243 111 301 149 68 44 164 108 191 128 l28 21 103 -70
c322 -217 568 -307 838 -307 121 0 143 3 215 28 356 122 538 473 530 1020 -2
147 -8 235 -20 293 -4 19 10 29 118 83 456 231 729 533 764 845 27 234 -73
461 -290 661 -123 113 -348 252 -540 333 l-47 20 6 63 c9 88 10 319 0 408 -40
390 -195 659 -447 774 -94 43 -175 59 -299 59 -242 0 -517 -100 -810 -295
l-126 -84 -44 33 c-123 91 -323 202 -470 261 -169 68 -371 99 -515 80z m310
-79 c116 -28 302 -116 449 -213 63 -41 120 -81 127 -88 8 -8 26 -23 41 -35
l28 -21 -88 -75 c-153 -132 -301 -283 -446 -457 -49 -58 -92 -109 -96 -113 -3
-4 -74 -21 -156 -38 -180 -36 -304 -67 -445 -112 l-107 -34 -11 69 c-20 120
-26 209 -26 368 0 191 8 253 46 376 100 324 341 456 684 373z m1739 16 c229
-61 380 -269 423 -583 10 -71 10 -357 1 -437 -4 -33 -8 -69 -8 -80 -1 -44 -11
-46 -101 -21 -82 23 -133 37 -155 42 -7 1 -43 9 -80 17 -38 9 -112 23 -164 32
-52 9 -105 18 -116 20 -12 2 -47 6 -77 10 -51 7 -59 11 -91 52 -111 142 -383
421 -513 527 l-73 58 68 53 c321 251 660 370 886 310z m-849 -592 c117 -116
223 -231 300 -326 l47 -58 -134 7 c-218 12 -524 7 -703 -10 -16 -2 -66 -7
-110 -11 -44 -4 -82 -8 -85 -8 -3 -1 -6 3 -7 8 -5 25 202 262 385 442 l125
122 36 -29 c20 -15 86 -77 146 -137z m390 -507 c11 -3 29 -5 40 -5 36 -2 277
-356 437 -641 115 -206 138 -250 138 -265 0 -8 -11 -38 -24 -67 -13 -29 -34
-78 -47 -108 -36 -86 -190 -383 -264 -510 -138 -237 -285 -452 -310 -456 -11
-2 -47 -6 -80 -8 -33 -3 -85 -8 -115 -11 -161 -14 -549 -20 -700 -11 -30 2
-78 5 -107 5 l-52 1 -54 78 c-184 261 -405 657 -537 960 l-54 124 46 91 c77
155 234 423 355 605 63 94 118 172 121 173 4 0 14 2 22 3 17 4 85 12 175 21
33 4 76 8 95 10 19 3 91 7 160 11 69 3 126 8 128 9 5 5 605 -4 627 -9z m295
-31 c30 -3 66 -8 80 -10 132 -21 176 -28 264 -46 133 -27 127 -25 173 -39 l40
-12 -18 -82 c-10 -44 -21 -94 -24 -111 -3 -16 -7 -34 -9 -40 -1 -5 -8 -30 -15
-55 -20 -71 -102 -320 -105 -320 -2 0 -38 62 -80 138 -109 196 -192 330 -312
501 -36 51 -62 91 -57 88 4 -3 33 -8 63 -12z m-1763 -174 c-146 -221 -213
-334 -287 -480 l-32 -65 -15 35 c-43 99 -146 460 -141 492 2 14 17 24 48 33
75 22 288 74 405 99 61 13 111 24 112 24 1 1 -40 -62 -90 -138z m2789 -101
c95 -45 240 -131 293 -175 183 -150 267 -287 278 -455 15 -234 -134 -456 -437
-653 -111 -72 -385 -208 -393 -196 -2 2 -14 47 -27 99 -30 122 -102 350 -147
464 -30 76 -34 94 -25 120 6 17 35 101 66 187 73 210 158 538 171 669 2 14 3
26 4 27 2 6 124 -43 217 -87z m-3511 -83 c37 -190 102 -412 187 -636 l39 -105
-45 -120 c-53 -142 -81 -225 -102 -304 -21 -76 -65 -252 -70 -276 -2 -10 -6
-21 -8 -24 -18 -18 -424 180 -509 248 -163 131 -215 188 -271 298 -85 167 -65
363 53 522 43 58 142 159 201 203 30 23 57 45 60 48 21 26 252 151 390 211
l55 25 7 -31 c4 -17 10 -44 13 -59z m3028 -1017 c43 -110 92 -255 117 -348 6
-24 13 -49 16 -57 8 -20 -260 -106 -483 -155 -46 -10 -83 -16 -83 -13 0 2 13
23 28 46 84 123 332 582 332 614 0 9 22 35 26 30 1 -1 22 -54 47 -117z m-2644
-63 c84 -172 166 -317 268 -475 l54 -84 -38 6 c-21 3 -48 7 -59 10 -12 2 -37
7 -55 10 -187 32 -449 102 -449 121 0 23 88 317 126 420 20 55 41 115 47 133
6 17 13 32 16 31 3 0 44 -78 90 -172z m2842 -634 c0 -10 3 -27 5 -38 27 -120
37 -392 20 -540 -21 -178 -95 -346 -195 -444 -156 -151 -403 -177 -681 -70
-142 54 -330 163 -468 272 l-63 49 133 132 c116 115 245 257 343 379 23 28 40
38 70 43 76 11 280 56 385 84 124 34 374 117 410 136 33 18 40 17 41 -3z
m-3129 -67 c143 -60 577 -160 793 -183 54 -5 51 -3 150 -119 119 -140 359
-384 376 -384 22 0 4 -23 -58 -73 -202 -163 -453 -293 -639 -331 -366 -76
-616 121 -681 536 -9 57 -9 397 -1 463 3 22 6 55 7 73 1 36 5 38 53 18z m1818
-215 c0 -6 -130 -149 -213 -235 l-68 -71 -88 90 c-104 107 -181 193 -181 203
0 4 88 7 195 7 108 0 219 2 248 5 66 6 107 7 107 1z"/>
<path d="M2209 3405 c-2 -31 -11 -135 -24 -270 -17 -173 -28 -300 -29 -350
l-1 -49 118 -73 117 -74 33 24 c98 74 259 62 332 -24 35 -42 59 -130 52 -195
-13 -130 -103 -204 -249 -205 -111 -1 -206 41 -293 131 l-40 41 -87 -93 c-48
-51 -88 -97 -88 -103 0 -21 131 -132 191 -162 118 -58 187 -74 324 -78 188 -4
329 46 435 155 133 137 167 388 78 567 -51 103 -181 195 -319 227 -66 16 -256
16 -293 1 -19 -8 -19 5 0 210 1 17 3 36 3 44 1 11 25 12 129 7 70 -4 179 -9
242 -12 63 -3 130 -7 148 -8 26 -2 32 1 33 18 1 27 1 279 0 286 -1 3 -183 5
-406 5 -398 0 -405 0 -406 -20z"/>
</g>
</svg>
