<svg version="1" xmlns="http://www.w3.org/2000/svg" width="682.667" height="682.667" viewBox="0 0 512.000000 512.000000"><path d="M151.5 23c-23.5 3.6-41.1 17-52.1 39.5-9.9 20.3-13.1 38.9-12 70.5.3 10.7.9 21.1 1.2 23l.5 3.5-12.5 6.3c-72.8 36.6-96 91-58.6 137.5 12.6 15.7 30.6 29.1 55.2 41l14.7 7.2-.6 19.5c-.9 31.4 2.7 51.2 12.8 71.9 4.4 8.9 6.5 11.8 13.8 19.2 7.1 7.2 10.2 9.5 17.1 12.8 10.4 5 19.6 7.1 31.6 7.1 24.5 0 51.5-9.8 81.2-29.6l12.3-8.2 12.5 8.4c43.2 28.8 82.6 36.6 112.4 22.2 6.9-3.3 10.1-5.7 17.1-12.8 7.4-7.3 9.4-10.2 13.8-19.1 10-20.5 13.7-40.8 12.7-70.4-.3-9.9-.9-20.3-1.2-23l-.5-5 7.7-3.5c19.8-8.9 42.1-24.6 56.1-39.4 25.3-26.8 31.4-56.4 17.6-84.1-10.8-21.6-32.7-41.1-63.3-56.4-6.3-3.2-13-6.3-14.8-6.9-3.2-1.1-3.3-1.3-2.5-4.9 1.5-7.6.8-43.1-1.1-53.8-4.5-24.9-14-44.6-27.3-56.4-6.7-6-18.3-12.2-27.3-14.7-10.2-2.9-30.6-2.4-43.2.9-19.7 5.2-39.2 14.5-59.6 28.5-5.2 3.5-9.7 6.2-10 6-.4-.2-6.3-4-13.2-8.6-20.2-13.4-41.5-22.9-59.2-26.6-9.7-2-23.9-2.7-31.3-1.6zm209.9 7.9c23.8 8.4 36.6 31.3 39.1 70.1.6 9.4-.6 32.3-2.1 40l-.6 2.8-6.7-2c-12-3.5-35.4-8.5-51.1-10.9l-15.6-2.3-6.9-8.5c-12.6-15.3-42.9-45.3-54.5-53.9-.8-.6 5.8-5.7 18.3-14.2 17.8-12.1 35.9-20.2 51.4-23 7.6-1.4 22-.4 28.7 1.9zM188 32.5c4.7 1.5 13.1 4.9 18.6 7.6 9.9 4.7 30.3 17.7 37.4 23.7l3.5 3-4.5 3.9c-18.6 15.9-37.4 35.2-52.6 54l-5.8 7.2-9.1 1.6c-13.5 2.5-32.4 7.1-47.4 11.6-7.3 2.2-13.5 3.9-13.6 3.7-.2-.2-1-5.3-1.9-11.3-6-43.8-.2-76.7 16.8-94.3 5.3-5.6 12.2-10 19.4-12.3 8.7-2.9 27.6-2.1 39.2 1.6zm85.8 58.2c9.8 9.8 21.3 22 25.6 27.1l7.9 9.4-6.9-.8c-12.7-1.4-60.7-.8-79.7 1-9.8 1-18 1.6-18.2 1.4-1.6-1.6 49.2-55.8 52.3-55.8.7 0 9.3 8 19 17.7zm32.9 48.9c11.9.7 10-.8 22.9 17.7 11.8 16.8 25.2 38.6 35.6 57.8l8.1 15-2.9 7.2c-4.7 11.6-22.6 47.1-31.4 62.2-6.4 10.8-21.5 34.4-28.2 43.9-1.9 2.7-58.9 5.3-89.1 4.1l-18.8-.7-11.3-17.2c-6.3-9.4-14.9-23.2-19.1-30.6-9-15.6-25.5-48.7-30.4-60.7l-3.3-8.2 6.3-11.8c11.4-21.4 20.9-37.6 33.2-56 10.5-15.9 12.4-18.2 15.1-18.7 22.9-4.1 76.5-6 113.3-4zm41.2 3.9c10.9 1.6 37.6 6.8 44.5 8.6l3.8 1-.6 4.4c-1.2 7.5-6.4 27.4-11.2 42.4l-4.7 14.3-2.7-4.8c-1.5-2.7-5.6-10.1-9.1-16.4-3.5-6.3-12.3-20.4-19.6-31.2-7.2-10.9-12.7-19.8-12.1-19.8.6 0 5.8.7 11.7 1.5zm-183.7 16.7c-10.3 15.5-16.5 25.8-25.5 42.1l-6.5 11.8-5.1-15.8c-5.5-17-10.7-37.1-9.9-37.9 1.6-1.5 48.4-13.1 54.1-13.3 1.3-.1-.6 3.3-7.1 13.1zM444.5 171c33.8 16.2 51.8 34.9 55.7 57.7 1.7 10.4.1 19.1-5.9 31.3-4 8.2-6 10.8-14.7 19.6-12.1 12-26.6 22-45.1 30.9-7.1 3.5-13.9 6.5-14.9 6.7-1.7.3-2.3-1.1-4.6-10.2-3.8-14.8-7.4-26.4-13.1-41.7l-5-13.3 5.1-13.5c6.9-18.3 13.4-41.4 17.3-61.1l3.1-16.2 4.1 1.5c2.2.8 10.3 4.6 18 8.3zM93.8 184.7c3.8 17.6 9.5 36.9 16.3 54.9l4.9 13.2-3 7.3c-4.7 11.2-12.7 36.7-16.2 51.5-3 12.3-3.4 13.3-5.3 12.8-6.3-2-26.4-11.2-34.1-15.5-38.1-21.7-53.7-48.4-44.2-75.5 7.6-21.8 31.8-42.9 67.7-59 5.3-2.4 9.8-4.4 10.2-4.4.3 0 1.9 6.6 3.7 14.7zm307.5 113c2.5 7.6 5.2 16.1 6 18.9l1.5 5.1-12.7 4.2c-13.3 4.4-41.8 11.7-42.6 10.9-.2-.2 3.8-7.6 9.1-16.4 5.2-8.7 13.6-24.1 18.6-34.2l9.2-18.2 3.2 7.9c1.7 4.4 5.2 14.2 7.7 21.8zm-272.1-13.9c7.3 14.8 17.4 32.9 26.9 48.1 3.3 5.2 5.8 9.5 5.7 9.7-1.1 1.1-56.9-11.4-58.6-13.1-1.3-1.2 17.1-58.5 18.7-58.5.3 0 3.6 6.2 7.3 13.8zm286.7 72.1c6.4 41.7.6 75.6-16.2 93.7C390 460.1 378 465 361.9 465c-22 0-48.1-10.8-76.3-31.7l-8.4-6.3 14.7-14.7c8.1-8.2 19.4-20.4 25.1-27.3l10.3-12.5 13.6-2.6c24.4-4.8 54.5-13.4 69.3-19.8 2.3-1 4.4-1.8 4.4-1.7.1 0 .7 3.4 1.3 7.5zM134.1 366c8.5 2.1 22.9 5 32 6.5 9 1.4 17.6 2.9 19 3.3 1.6.4 6.1 4.9 11.9 11.7 5.1 6 15.7 17.4 23.6 25.2l14.2 14.3-6.1 4.8c-15.3 12.1-33.5 22.9-48.2 28.6-22.6 8.7-42.1 8.5-56.9-.4-18-10.8-28.5-36.5-28.6-70.1 0-9.1 1.4-27.8 2.5-32.6l.5-2.2 10.3 3.5c5.6 1.9 17.2 5.2 25.8 7.4zm148 13.9c-.6 1-6.7 7.8-13.7 15-10.8 11.2-12.9 13-14.2 11.9-.8-.7-6.9-7.2-13.5-14.3l-12-13 19.4-.5c10.7-.3 22.9-.7 27.2-.8 7.3-.2 7.7-.1 6.8 1.7z"/><path d="M247.4 213c-10.5 2.1-20.2 10.1-25.1 20.5-2.4 5.1-2.8 7.3-2.8 14.5s.4 9.4 2.9 14.7c7.1 15.5 24.5 24 40.7 19.9 11-2.9 18.3-8.8 24-19.6 2.1-3.9 2.4-5.9 2.4-15s-.3-11.1-2.4-15c-5.6-10.6-13-16.7-23.6-19.5-6.4-1.6-9.7-1.7-16.1-.5z"/></svg>